<svg xmlns="http://www.w3.org/2000/svg" width="70.219" height="76.36" viewBox="0 0 70.219 76.36"><defs><style>.a{fill:#f8f8f8;}.b{fill:#ffed3b;}.c{fill:#19703d;}</style></defs><g transform="translate(-1388 -1922.652)"><path class="a" d="M24.85,28.583a20,20,0,0,1,34.3,0L65.826,39.71A20,20,0,0,1,48.676,70H35.324a20,20,0,0,1-17.15-30.29Z" transform="matrix(0.469, 0.883, -0.883, 0.469, 1442.627, 1905.485)"/><g transform="translate(3.896 -5.32)"><rect class="b" width="5.461" height="17.474" transform="translate(1398.096 1942.263)"/><g transform="translate(1385.104 1927.973)"><path class="b" d="M50.309,16.754a1.642,1.642,0,0,1,.737-2.245l8.076-4.021A1.678,1.678,0,0,1,60.6,13.5l-8.042,4.021a2.144,2.144,0,0,1-.771.168,1.608,1.608,0,0,1-1.474-.938Zm10.287,26L52.521,38.7a1.675,1.675,0,0,0-2.245.737,1.742,1.742,0,0,0,.737,2.279l8.076,4.021a1.474,1.474,0,0,0,.737,0,1.675,1.675,0,0,0,.771-3.15ZM52.722,26.438h0a1.675,1.675,0,1,0,0,3.351h6.7a1.675,1.675,0,1,0,0-3.351Z" transform="translate(5.919 -2.948)"/><g transform="translate(0 0)"><path class="c" d="M55.615,25.8v3.351a8.377,8.377,0,0,1-6.7,8.377V49.261a1.742,1.742,0,0,1-.8,1.441,1.977,1.977,0,0,1-.871.235,1.809,1.809,0,0,1-.737-.168l-24.395-12.2V55.963a1.675,1.675,0,0,1-1.675,1.675h-6.7a1.675,1.675,0,0,1-1.675-1.675V38.169L4.212,40.884a1.508,1.508,0,0,1-.536,0,1.675,1.675,0,0,1-.972-.3A1.743,1.743,0,0,1,2,39.208V15.752a1.742,1.742,0,0,1,.7-1.374,1.608,1.608,0,0,1,1.508-.3L14,17.427h6.032L46.5,4.191a1.709,1.709,0,0,1,1.608,0,1.742,1.742,0,0,1,.8,1.508v11.9A8.377,8.377,0,0,1,55.615,25.8Zm-36.86-5.026H15.4v13.4h3.351ZM5.351,36.9l6.7-2.245V20.309l-6.7-2.245Zm13.4.637H15.4V54.287h3.351Zm26.807-1.675V8.413L22.105,20.141V34.818L45.562,46.547Z" transform="translate(-2 -3.99)"/></g></g></g></g></svg>