<svg xmlns="http://www.w3.org/2000/svg" width="70.219" height="72.437" viewBox="0 0 70.219 72.437"><defs><style>.a{fill:#f8f8f8;}.b{fill:#19703d;}.c{fill:#ffed3b;}</style></defs><g transform="translate(-1386 -2123.575)"><path class="a" d="M24.85,28.583a20,20,0,0,1,34.3,0L65.826,39.71A20,20,0,0,1,48.676,70H35.324a20,20,0,0,1-17.15-30.29Z" transform="matrix(0.469, 0.883, -0.883, 0.469, 1440.627, 2102.485)"/><g transform="translate(124.5 -185.425)"><path class="b" d="M44.048,26.943h2.358A10.987,10.987,0,0,0,57.381,15.968V7.986a3,3,0,0,0-2.993-2.993H47.4V4a2,2,0,0,0-2-2H28.341a1,1,0,1,0,0,2H45.409V6.989H17.473V4h3.991a1,1,0,1,0,0-2H17.473a2,2,0,0,0-2,2v1H8.493A3,3,0,0,0,5.5,7.986v7.982A10.987,10.987,0,0,0,16.475,26.943h2.358a13,13,0,0,0,9.615,9.615v4.353h-1a2,2,0,0,0-2,2v2H22.461a2,2,0,0,0-2,2v8.979h-1a3,3,0,0,0-2.993,2.993v2a1,1,0,0,0,1,1H45.409a1,1,0,0,0,1-1v-2a3,3,0,0,0-2.993-2.993h-1V46.9a2,2,0,0,0-2-2H37.427v-2a2,2,0,0,0-2-2h-1V36.558A13,13,0,0,0,44.048,26.943Zm.363-15.963H51.4v4.989a4.994,4.994,0,0,1-4.989,4.989h-2ZM47.4,6.989h6.984a1,1,0,0,1,1,1v7.982a8.989,8.989,0,0,1-8.979,8.979H44.36c.025-.33.051-.661.051-1v-1h2a6.992,6.992,0,0,0,6.984-6.984V9.982a1,1,0,0,0-1-1H45.409A2,2,0,0,0,47.4,6.989ZM16.475,24.948A8.989,8.989,0,0,1,7.5,15.968V7.986a1,1,0,0,1,1-1h6.984a2,2,0,0,0,2,2h1V20.957h-2a4.994,4.994,0,0,1-4.989-4.989V10.979h3.991a1,1,0,0,0,0-2H10.489a1,1,0,0,0-1,1v5.986a6.992,6.992,0,0,0,6.984,6.984h2v1c0,.337.025.667.051,1Zm3.991-1V8.984h21.95V23.95a10.975,10.975,0,1,1-21.95,0ZM40.42,55.877H30.443a1,1,0,1,0,0,2h12.97a1,1,0,0,1,1,1v1H18.47v-1a1,1,0,0,1,1-1h3.991a1,1,0,1,0,0-2h-1V46.9H40.42ZM35.432,44.9H27.45v-2h7.982Zm-2.993-3.991h-2V36.87c.33.025.661.051,1,.051s.667-.025,1-.051Z" transform="translate(1265 2307)"/><path class="b" d="M24.5,4h1a1,1,0,1,0,0-2h-1a1,1,0,0,0,0,2Z" transform="translate(1264.959 2307)"/><path class="b" d="M27.5,56h-1a1,1,0,1,0,0,2h1a1,1,0,1,0,0-2Z" transform="translate(1264.954 2306.877)"/><path class="c" d="M26.5,49a1,1,0,1,0,0,2h9.977a1,1,0,1,0,0-2Z" transform="translate(1264.954 2306.893)"/><path class="c" d="M36.475,52H26.5a1,1,0,1,0,0,2h9.977a1,1,0,1,0,0-2Z" transform="translate(1264.954 2306.886)"/><path class="c" d="M16.489,42.989h2a1,1,0,1,0,0-2h-2V39a1,1,0,1,0-2,0v2h-2a1,1,0,1,0,0,2h2v2a1,1,0,0,0,2,0Z" transform="translate(1264.986 2306.918)"/><path class="c" d="M57.484,29.993h-2V28a1,1,0,1,0-2,0v2h-2a1,1,0,0,0,0,2h2v2a1,1,0,1,0,2,0v-2h2a1,1,0,1,0,0-2Z" transform="translate(1264.897 2306.943)"/></g></g></svg>