<svg xmlns="http://www.w3.org/2000/svg" width="82.599" height="80.573" viewBox="0 0 82.599 80.573"><defs><style>.a{fill:#f8f8f8;}.b{fill:#ffed3b;}.c{fill:#19703d;}</style></defs><g transform="translate(-1010 -1921.439)"><path class="a" d="M24.85,28.583a20,20,0,0,1,34.3,0L65.826,39.71A20,20,0,0,1,48.676,70H35.324a20,20,0,0,1-17.15-30.29Z" transform="matrix(0.469, 0.883, -0.883, 0.469, 1070.627, 1908.485)"/><g transform="translate(-11.02 -40.561)"><path class="b" d="M-907.35,2011.93l4.094,3.615,3.892-3.984-1.691-24.135h-4.88l-1.414,20.022Z" transform="translate(1966.202 9.926)"/><g transform="translate(1021.02 1962)"><path class="c" d="M-202.868,385.428c4.413-4.932,3.634-13.324,3.547-14.19-.433-9.69-7.614-12.027-11.767-11.94-4.24-.173-11.334,2.25-11.767,11.94-.087.865-.779,9.258,3.547,14.19a10.556,10.556,0,0,0,8.047,3.461h.346A10.83,10.83,0,0,0-202.868,385.428Zm-8.22.173h-.087a7.035,7.035,0,0,1-5.71-2.423c-3.547-3.98-2.769-11.68-2.769-11.767v-.087c.346-8.22,6.4-8.912,8.22-8.912h.346c1.384-.087,8.047.087,8.479,8.912v.087c0,.087.779,7.7-2.769,11.681A6.74,6.74,0,0,1-211.087,385.6Zm3.634,3.98a1.643,1.643,0,0,0-1.644,1.644,1.848,1.848,0,0,1-.692,1.471c-.087.086-.173.086-.26.173a2.454,2.454,0,0,1-1.125.346,1.958,1.958,0,0,1-1.99-1.99,1.643,1.643,0,0,0-1.644-1.644,1.591,1.591,0,0,0-1.644,1.644,5.14,5.14,0,0,0,1.125,3.2l-1.125,25.264a1.761,1.761,0,0,0,.519,1.3l3.461,3.115a1.822,1.822,0,0,0,1.125.433,2.037,2.037,0,0,0,1.125-.433l3.547-3.2a1.761,1.761,0,0,0,.519-1.3l-1.125-24.918a5.063,5.063,0,0,0,1.3-3.461A1.411,1.411,0,0,0-207.453,389.581Zm-3.72,31.148-1.817-1.644.952-22.669a3.55,3.55,0,0,0,.952.086,1.687,1.687,0,0,0,.692-.086L-209.357,419Zm39.281-16.526h.087a1.681,1.681,0,0,0,1.644-1.471c.26-4.067-1.3-6.922-4.24-7.614-5.451-1.384-7.614-3.028-8.306-4.066a10.381,10.381,0,0,0,1.038-.952c3.374-3.72,2.855-10.123,2.769-10.815-.346-7.527-5.883-9.344-9.171-9.258-3.288-.087-8.825,1.73-9.171,9.258-.087.692-.606,7.095,2.769,10.815a7.472,7.472,0,0,0,1.211,1.125,12.023,12.023,0,0,1-1.73,1.471,31.732,31.732,0,0,1-7.354-3.634,1.583,1.583,0,0,0-2.25.433,1.583,1.583,0,0,0,.433,2.25,34.918,34.918,0,0,0,10.383,4.759c2.855.692,3.028,4.326,2.855,6.316v.173a17.111,17.111,0,0,1-.346,3.894,1.567,1.567,0,0,0,.952,2.077,1.473,1.473,0,0,0,.606.086,1.553,1.553,0,0,0,1.471-1.038,16.835,16.835,0,0,0,.606-5.1c.26-4.326-1.038-7.527-3.634-9a7.182,7.182,0,0,0,1.125-1.384,7.375,7.375,0,0,0,1.99.26h.346a6.451,6.451,0,0,0,2.25-.346c1.038,1.73,3.634,4.067,10.469,5.8,1.817.433,1.9,2.855,1.817,4.24A1.5,1.5,0,0,0-171.893,404.2Zm-16.18-14.709h0a4.863,4.863,0,0,1-3.98-1.644c-2.509-2.855-1.99-8.306-1.99-8.393v-.086c.26-5.8,4.413-6.23,5.71-6.23h.26c.952,0,5.624.087,5.884,6.23v.086c.173,1.557.173,6.057-1.99,8.393A5.109,5.109,0,0,1-188.073,389.495Zm-60.392,5.624c-3.028.779-4.5,3.547-4.24,7.614a1.612,1.612,0,0,0,1.644,1.471h.087a1.629,1.629,0,0,0,1.471-1.73c-.086-1.384,0-3.807,1.817-4.24,6.835-1.73,9.431-4.067,10.469-5.8a17.509,17.509,0,0,0,2.25.346h.26a7.376,7.376,0,0,0,1.99-.26,7.332,7.332,0,0,0,1.384,1.644c-2.25,1.557-3.374,4.586-3.115,8.652a17.118,17.118,0,0,0,.606,5.1,1.685,1.685,0,0,0,1.471,1.038,1.473,1.473,0,0,0,.606-.086,1.554,1.554,0,0,0,.865-2.077,17.111,17.111,0,0,1-.346-3.894v-.173c-.173-2.077,0-5.624,2.855-6.316a33.679,33.679,0,0,0,10.383-4.759,1.751,1.751,0,0,0,.433-2.25,1.66,1.66,0,0,0-2.25-.433,33.788,33.788,0,0,1-7.96,3.807,7.116,7.116,0,0,1-1.99-1.557,7.471,7.471,0,0,0,1.211-1.125c3.374-3.72,2.855-10.123,2.769-10.815-.346-7.527-5.883-9.344-9.171-9.258-3.288-.086-8.825,1.73-9.171,9.258-.087.692-.606,7.095,2.769,10.815a10.371,10.371,0,0,0,1.038.952C-240.851,392-243.014,393.734-248.465,395.119Zm7.787-15.661v-.086c.26-5.8,4.413-6.23,5.71-6.23h.26c.952,0,5.624.087,5.884,6.23v.086c0,.087.519,5.537-1.99,8.393a5.139,5.139,0,0,1-3.98,1.644h-.087a4.864,4.864,0,0,1-3.98-1.644C-241.284,385.082-240.678,379.545-240.678,379.458Z" transform="translate(252.734 -359.29)"/></g></g></g></svg>