<svg xmlns="http://www.w3.org/2000/svg" width="70.219" height="78.825" viewBox="0 0 70.219 78.825"><defs><style>.a{fill:#f8f8f8;}.b{fill:#19703d;}.c{fill:#ffed3b;}</style></defs><g transform="translate(-1022 -2123.188)"><path class="a" d="M24.85,28.583a20,20,0,0,1,34.3,0L65.826,39.71A20,20,0,0,1,48.676,70H35.324a20,20,0,0,1-17.15-30.29Z" transform="matrix(0.469, 0.883, -0.883, 0.469, 1076.627, 2108.485)"/><g transform="translate(1020.6 2120.688)"><path class="b" d="M55.669,2.5H18.061A5.665,5.665,0,0,0,12.4,8.161V58.652a5.665,5.665,0,0,0,5.661,5.661H55.734a5.665,5.665,0,0,0,5.661-5.661V8.161A5.763,5.763,0,0,0,55.669,2.5Zm3.448,56.152a3.416,3.416,0,0,1-3.448,3.383H18.061a3.459,3.459,0,0,1-3.448-3.383V8.161a3.471,3.471,0,0,1,3.448-3.448H55.734a3.471,3.471,0,0,1,3.448,3.448V58.652Z" transform="translate(0 0)"/><path class="c" d="M38.913,36.074,44.7,30.283l2.928,2.928a1.063,1.063,0,0,0,1.562,0l6.116-6.116L56.416,28.2a.533.533,0,0,0,.911-.325l.586-4.294A.518.518,0,0,0,57.327,23l-4.294.586a.533.533,0,0,0-.325.911L53.813,25.6l-5.335,5.335-2.993-2.993a1.063,1.063,0,0,0-1.562,0l-6.507,6.572a1.063,1.063,0,0,0,0,1.562A1.1,1.1,0,0,0,38.913,36.074Z" transform="translate(-8.62 -7.157)"/><path class="b" d="M55.191,63.1H30.206a1.106,1.106,0,1,0,0,2.212h24.92a1.14,1.14,0,0,0,1.106-1.106A1.009,1.009,0,0,0,55.191,63.1Z" transform="translate(-5.834 -21.17)"/><path class="b" d="M55.191,78.6H30.206a1.106,1.106,0,1,0,0,2.212h24.92a1.14,1.14,0,0,0,1.106-1.106A1.009,1.009,0,0,0,55.191,78.6Z" transform="translate(-5.834 -26.585)"/><path class="b" d="M55.191,37.644H31.312V20.206a1.106,1.106,0,1,0-2.212,0V38.75a1.14,1.14,0,0,0,1.106,1.106h24.92a1.14,1.14,0,0,0,1.106-1.106A1.009,1.009,0,0,0,55.191,37.644Z" transform="translate(-5.834 -5.799)"/></g></g></svg>